<svg width="194" height="58" viewBox="0 0 194 58" fill="none" xmlns="http://www.w3.org/2000/svg">
<g filter="url(#filter0_d_388_21977)">
<path d="M8.57489 6.90723C8.03788 6.90723 7.60254 7.3206 7.60254 7.83053V39.0866C7.60254 40.4306 8.67211 41.5183 9.98753 41.5121L13.8406 41.494C15.1561 41.4879 16.2256 42.5756 16.2256 43.9196V48.5696C16.2256 49.9091 17.2885 50.9951 18.5997 50.9951L41.3918 50.9951C41.9288 50.9951 42.3641 50.5817 42.3641 50.0718V36.3424C42.3641 35.8312 41.9362 35.4415 41.438 35.4194C41.2038 35.409 40.9697 35.465 40.7352 35.465H26.0204C24.7093 35.465 23.6464 34.3791 23.6464 33.0395V7.83053C23.6464 7.3206 23.211 6.90723 22.674 6.90723H8.57489Z" fill="url(#paint0_linear_388_21977)" shape-rendering="crispEdges"/>
<path d="M8.5752 7.07617H22.6738C23.1255 7.07617 23.4763 7.42206 23.4766 7.83008V33.0391C23.4766 34.4688 24.6124 35.6348 26.0205 35.6348H40.7354C40.8638 35.6348 40.9919 35.6188 41.1055 35.6064C41.1641 35.6001 41.2197 35.5943 41.2734 35.5908L41.4307 35.5889C41.8502 35.6076 42.1943 35.9338 42.1943 36.3428V50.0723C42.1941 50.4803 41.8433 50.8262 41.3916 50.8262H18.5996L18.375 50.8145C17.2656 50.6994 16.3955 49.7408 16.3955 48.5693V43.9199C16.3955 42.5753 15.391 41.465 14.1016 41.3369L13.8398 41.3242L9.98633 41.3428L9.76074 41.332C8.64782 41.2212 7.77163 40.2618 7.77148 39.0869V7.83008C7.77174 7.42206 8.12354 7.07617 8.5752 7.07617Z" stroke="url(#paint1_linear_388_21977)" stroke-width="0.338803" shape-rendering="crispEdges"/>
</g>
<path d="M64.4614 44.5596L64.4085 14.0367L68.7689 14.0291L68.8219 44.5521L64.4614 44.5596ZM66.6852 44.5558L66.678 40.3698L83.8581 40.34L83.8653 44.526L66.6852 44.5558ZM93.9853 45.1189C92.5028 45.1215 91.1651 44.8331 89.9722 44.2538C88.8084 43.6744 87.8913 42.8766 87.221 41.8603C86.5506 40.815 86.2142 39.6237 86.2119 38.2865C86.2084 36.2807 86.9033 34.6807 88.2966 33.4864C89.6898 32.2631 91.6653 31.5474 94.223 31.3395L102.681 30.6272L102.688 34.3771L94.9707 35.001C93.4883 35.1198 92.3988 35.4415 91.702 35.9659C91.0052 36.4904 90.6576 37.2032 90.6592 38.1044C90.6607 38.9764 91.0399 39.7025 91.7967 40.2826C92.5535 40.8336 93.5132 41.1081 94.676 41.1061C95.8969 41.104 97.0011 40.8114 97.9884 40.2283C99.0048 39.6451 99.8029 38.8734 100.383 37.9131C100.962 36.9237 101.251 35.8622 101.249 34.7285L101.243 31.1529C101.24 29.6122 100.744 28.3486 99.7539 27.3619C98.7929 26.3752 97.513 25.8832 95.9141 25.886C94.5769 25.8883 93.4583 26.21 92.5583 26.8511C91.6873 27.4922 91.1074 28.3362 90.8185 29.3832L90.3388 29.384L86.5871 28.344C87.1651 26.3954 88.267 24.8382 89.8929 23.6726C91.5188 22.507 93.5236 21.9222 95.9073 21.918C98.9596 21.9127 101.33 22.8098 103.019 24.6092C104.709 26.3795 105.556 28.878 105.562 32.1047L105.583 44.4883L101.571 44.4953L101.56 38.1291L103.131 38.606C102.784 39.7984 102.161 40.8896 101.262 41.8796C100.391 42.8694 99.3316 43.6562 98.0826 44.2397C96.8336 44.8233 95.4678 45.1163 93.9853 45.1189ZM114.796 44.4724L107.564 22.9007L107.564 22.5519L111.924 22.5443L118.106 42.1992L118.982 44.4651L114.796 44.4724ZM114.796 44.4724L115.795 42.2032L122.128 22.5266L126.401 22.5192L126.009 22.8687L118.982 44.4651L114.796 44.4724ZM129.622 44.4466L122.521 22.8748L122.128 22.5266L126.401 22.5192L132.801 42.1737L133.808 44.4394L129.622 44.4466ZM129.622 44.4466L130.49 42.1777L136.604 22.5015L140.965 22.494L140.965 22.8428L133.808 44.4394L129.622 44.4466ZM146.802 44.4169L146.795 40.3617L156.082 40.3456C157.856 40.3425 159.192 39.8896 160.092 38.9869C161.02 38.055 161.483 36.7897 161.48 35.1909C161.478 33.6211 160.981 32.4011 159.991 31.5307C159.031 30.6312 157.722 30.1829 156.065 30.1858L146.777 30.2019L146.77 26.2775L155.36 26.2626C156.319 26.2609 157.148 26.0851 157.845 25.735C158.571 25.3559 159.122 24.8607 159.499 24.2496C159.905 23.6094 160.107 22.8823 160.106 22.0683C160.104 20.8184 159.68 19.8162 158.836 19.0618C158.021 18.3074 156.857 17.9316 155.346 17.9342L146.756 17.9491L146.749 13.8939L155.339 13.879C158.188 13.874 160.413 14.626 162.014 16.1348C163.615 17.6146 164.418 19.5318 164.422 21.8864C164.424 22.9329 164.179 23.9217 163.686 24.8528C163.194 25.7839 162.526 26.5699 161.684 27.2109C160.843 27.8519 159.899 28.2751 158.852 28.4804L158.851 27.4339C160.159 27.5479 161.337 27.9819 162.385 28.7359C163.462 29.4898 164.306 30.4331 164.919 31.5658C165.56 32.6984 165.882 33.9623 165.885 35.3577C165.889 38.0902 165.05 40.2864 163.367 41.9463C161.684 43.5771 159.345 44.3951 156.351 44.4003L146.802 44.4169ZM144.534 44.4208L144.481 13.8978L148.754 13.8904L148.807 44.4134L144.534 44.4208ZM169.98 44.3767L169.942 22.4437L174.302 22.4362L174.34 44.3691L169.98 44.3767ZM172.116 18.7772C171.302 18.7786 170.618 18.5036 170.065 17.9523C169.512 17.3718 169.234 16.6892 169.233 15.9043C169.232 15.0903 169.507 14.4067 170.058 13.8535C170.609 13.3002 171.292 13.0228 172.106 13.0214C172.891 13.0201 173.56 13.2951 174.113 13.8464C174.695 14.3977 174.987 15.0804 174.989 15.8943C174.99 16.6792 174.701 17.3628 174.12 17.9452C173.569 18.4985 172.901 18.7758 172.116 18.7772ZM186.823 44.3475C184.817 44.3509 183.188 43.7142 181.936 42.4373C180.713 41.1604 180.099 39.4318 180.095 37.2516L180.06 16.6268L184.42 16.6192L184.455 36.8516C184.457 38.0435 184.735 38.9296 185.288 39.51C185.871 40.0613 186.758 40.336 187.95 40.3339L190.391 40.3297L190.61 40.8089L190.616 44.3409L186.823 44.3475ZM176.327 26.4443L176.32 22.4327L190.578 22.4079L190.585 26.4195L176.327 26.4443Z" fill="white"/>
<defs>
<filter id="filter0_d_388_21977" x="0.758725" y="0.0634122" width="48.4493" height="57.7755" filterUnits="userSpaceOnUse" color-interpolation-filters="sRGB">
<feFlood flood-opacity="0" result="BackgroundImageFix"/>
<feColorMatrix in="SourceAlpha" type="matrix" values="0 0 0 0 0 0 0 0 0 0 0 0 0 0 0 0 0 0 127 0" result="hardAlpha"/>
<feOffset/>
<feGaussianBlur stdDeviation="3.42191"/>
<feComposite in2="hardAlpha" operator="out"/>
<feColorMatrix type="matrix" values="0 0 0 0 1 0 0 0 0 1 0 0 0 0 1 0 0 0 0.35 0"/>
<feBlend mode="normal" in2="BackgroundImageFix" result="effect1_dropShadow_388_21977"/>
<feBlend mode="normal" in="SourceGraphic" in2="effect1_dropShadow_388_21977" result="shape"/>
</filter>
<linearGradient id="paint0_linear_388_21977" x1="18.7535" y1="6.75748" x2="37.6697" y2="38.5595" gradientUnits="userSpaceOnUse">
<stop stop-color="#F8F8F8" stop-opacity="0.9"/>
<stop offset="1" stop-color="#F8F8F8" stop-opacity="0.2"/>
</linearGradient>
<linearGradient id="paint1_linear_388_21977" x1="24.9833" y1="6.90723" x2="24.9833" y2="50.9951" gradientUnits="userSpaceOnUse">
<stop stop-color="#999999" stop-opacity="0"/>
<stop offset="1" stop-color="#F6F6F6"/>
</linearGradient>
</defs>
</svg>
