<svg width="218" height="58" viewBox="0 0 218 58" fill="none" xmlns="http://www.w3.org/2000/svg">
<g filter="url(#filter0_d_388_21976)">
<path d="M19.5749 6.90723C19.0379 6.90723 18.6025 7.3206 18.6025 7.83053V39.0866C18.6025 40.4306 19.6721 41.5183 20.9875 41.5121L24.8406 41.494C26.1561 41.4879 27.2256 42.5756 27.2256 43.9196V48.5696C27.2256 49.9091 28.2885 50.9951 29.5997 50.9951L52.3918 50.9951C52.9288 50.9951 53.3641 50.5817 53.3641 50.0718V36.3424C53.3641 35.8312 52.9362 35.4415 52.438 35.4194C52.2038 35.409 51.9697 35.465 51.7352 35.465H37.0204C35.7093 35.465 34.6464 34.3791 34.6464 33.0395V7.83053C34.6464 7.3206 34.211 6.90723 33.674 6.90723H19.5749Z" fill="url(#paint0_linear_388_21976)" shape-rendering="crispEdges"/>
<path d="M19.5752 7.07617H33.6738C34.1255 7.07617 34.4763 7.42206 34.4766 7.83008V33.0391C34.4766 34.4688 35.6124 35.6348 37.0205 35.6348H51.7354C51.8638 35.6348 51.9919 35.6188 52.1055 35.6064C52.1641 35.6001 52.2197 35.5943 52.2734 35.5908L52.4307 35.5889C52.8502 35.6076 53.1943 35.9338 53.1943 36.3428V50.0723C53.1941 50.4803 52.8433 50.8262 52.3916 50.8262H29.5996L29.375 50.8145C28.2656 50.6994 27.3955 49.7408 27.3955 48.5693V43.9199C27.3955 42.5753 26.391 41.465 25.1016 41.3369L24.8398 41.3242L20.9863 41.3428L20.7607 41.332C19.6478 41.2212 18.7716 40.2618 18.7715 39.0869V7.83008C18.7717 7.42206 19.1235 7.07617 19.5752 7.07617Z" stroke="url(#paint1_linear_388_21976)" stroke-width="0.338803" shape-rendering="crispEdges"/>
</g>
<path d="M75.4614 44.5596L75.4085 14.0367L79.7689 14.0291L79.8219 44.5521L75.4614 44.5596ZM77.6852 44.5558L77.678 40.3698L94.8581 40.34L94.8653 44.526L77.6852 44.5558ZM104.985 45.1189C103.503 45.1215 102.165 44.8331 100.972 44.2538C99.8084 43.6744 98.8913 42.8766 98.221 41.8603C97.5506 40.815 97.2142 39.6237 97.2119 38.2865C97.2084 36.2807 97.9033 34.6807 99.2966 33.4864C100.69 32.2631 102.665 31.5474 105.223 31.3395L113.681 30.6272L113.688 34.3771L105.971 35.001C104.488 35.1198 103.399 35.4415 102.702 35.9659C102.005 36.4904 101.658 37.2032 101.659 38.1044C101.661 38.9764 102.04 39.7025 102.797 40.2826C103.553 40.8336 104.513 41.1081 105.676 41.1061C106.897 41.104 108.001 40.8114 108.988 40.2283C110.005 39.6451 110.803 38.8734 111.383 37.9131C111.962 36.9237 112.251 35.8622 112.249 34.7285L112.243 31.1529C112.24 29.6122 111.744 28.3486 110.754 27.3619C109.793 26.3752 108.513 25.8832 106.914 25.886C105.577 25.8883 104.458 26.21 103.558 26.8511C102.687 27.4922 102.107 28.3362 101.818 29.3832L101.339 29.384L97.5871 28.344C98.1651 26.3954 99.267 24.8382 100.893 23.6726C102.519 22.507 104.524 21.9222 106.907 21.918C109.96 21.9127 112.33 22.8098 114.019 24.6092C115.709 26.3795 116.556 28.878 116.562 32.1047L116.583 44.4883L112.571 44.4953L112.56 38.1291L114.131 38.606C113.784 39.7984 113.161 40.8896 112.262 41.8796C111.391 42.8694 110.332 43.6562 109.083 44.2397C107.834 44.8233 106.468 45.1163 104.985 45.1189ZM125.796 44.4724L118.564 22.9007L118.564 22.5519L122.924 22.5443L129.106 42.1992L129.982 44.4651L125.796 44.4724ZM125.796 44.4724L126.795 42.2032L133.128 22.5266L137.401 22.5192L137.009 22.8687L129.982 44.4651L125.796 44.4724ZM140.622 44.4466L133.521 22.8748L133.128 22.5266L137.401 22.5192L143.801 42.1737L144.808 44.4394L140.622 44.4466ZM140.622 44.4466L141.49 42.1777L147.604 22.5015L151.965 22.494L151.965 22.8428L144.808 44.4394L140.622 44.4466ZM157.802 44.4169L157.795 40.3617L167.082 40.3456C168.856 40.3425 170.192 39.8896 171.092 38.9869C172.02 38.055 172.483 36.7897 172.48 35.1909C172.478 33.6211 171.981 32.4011 170.991 31.5307C170.031 30.6312 168.722 30.1829 167.065 30.1858L157.777 30.2019L157.77 26.2775L166.36 26.2626C167.319 26.2609 168.148 26.0851 168.845 25.735C169.571 25.3559 170.122 24.8607 170.499 24.2496C170.905 23.6094 171.107 22.8823 171.106 22.0683C171.104 20.8184 170.68 19.8162 169.836 19.0618C169.021 18.3074 167.857 17.9316 166.346 17.9342L157.756 17.9491L157.749 13.8939L166.339 13.879C169.188 13.874 171.413 14.626 173.014 16.1348C174.615 17.6146 175.418 19.5318 175.422 21.8864C175.424 22.9329 175.179 23.9217 174.686 24.8528C174.194 25.7839 173.526 26.5699 172.684 27.2109C171.843 27.8519 170.899 28.2751 169.852 28.4804L169.851 27.4339C171.159 27.5479 172.337 27.9819 173.385 28.7359C174.462 29.4898 175.306 30.4331 175.919 31.5658C176.56 32.6984 176.882 33.9623 176.885 35.3577C176.889 38.0902 176.05 40.2864 174.367 41.9463C172.684 43.5771 170.345 44.3951 167.351 44.4003L157.802 44.4169ZM155.534 44.4208L155.481 13.8978L159.754 13.8904L159.807 44.4134L155.534 44.4208ZM180.98 44.3767L180.942 22.4437L185.302 22.4362L185.34 44.3691L180.98 44.3767ZM183.116 18.7772C182.302 18.7786 181.618 18.5036 181.065 17.9523C180.512 17.3718 180.234 16.6892 180.233 15.9043C180.232 15.0903 180.507 14.4067 181.058 13.8535C181.609 13.3002 182.292 13.0228 183.106 13.0214C183.891 13.0201 184.56 13.2951 185.113 13.8464C185.695 14.3977 185.987 15.0804 185.989 15.8943C185.99 16.6792 185.701 17.3628 185.12 17.9452C184.569 18.4985 183.901 18.7758 183.116 18.7772ZM197.823 44.3475C195.817 44.3509 194.188 43.7142 192.936 42.4373C191.713 41.1604 191.099 39.4318 191.095 37.2516L191.06 16.6268L195.42 16.6192L195.455 36.8516C195.457 38.0435 195.735 38.9296 196.288 39.51C196.871 40.0613 197.758 40.336 198.95 40.3339L201.391 40.3297L201.61 40.8089L201.616 44.3409L197.823 44.3475ZM187.327 26.4443L187.32 22.4327L201.578 22.4079L201.585 26.4195L187.327 26.4443Z" fill="white"/>
<defs>
<filter id="filter0_d_388_21976" x="11.7587" y="0.0634122" width="48.4493" height="57.7755" filterUnits="userSpaceOnUse" color-interpolation-filters="sRGB">
<feFlood flood-opacity="0" result="BackgroundImageFix"/>
<feColorMatrix in="SourceAlpha" type="matrix" values="0 0 0 0 0 0 0 0 0 0 0 0 0 0 0 0 0 0 127 0" result="hardAlpha"/>
<feOffset/>
<feGaussianBlur stdDeviation="3.42191"/>
<feComposite in2="hardAlpha" operator="out"/>
<feColorMatrix type="matrix" values="0 0 0 0 1 0 0 0 0 1 0 0 0 0 1 0 0 0 0.35 0"/>
<feBlend mode="normal" in2="BackgroundImageFix" result="effect1_dropShadow_388_21976"/>
<feBlend mode="normal" in="SourceGraphic" in2="effect1_dropShadow_388_21976" result="shape"/>
</filter>
<linearGradient id="paint0_linear_388_21976" x1="29.7535" y1="6.75748" x2="48.6697" y2="38.5595" gradientUnits="userSpaceOnUse">
<stop stop-color="#F8F8F8" stop-opacity="0.9"/>
<stop offset="1" stop-color="#F8F8F8" stop-opacity="0.2"/>
</linearGradient>
<linearGradient id="paint1_linear_388_21976" x1="35.9833" y1="6.90723" x2="35.9833" y2="50.9951" gradientUnits="userSpaceOnUse">
<stop stop-color="#999999" stop-opacity="0"/>
<stop offset="1" stop-color="#F6F6F6"/>
</linearGradient>
</defs>
</svg>
